<?xml version="1.0" standalone="no"?>
<!DOCTYPE svg PUBLIC "-//W3C//DTD SVG 20010904//EN"
 "http://www.w3.org/TR/2001/REC-SVG-20010904/DTD/svg10.dtd">
<svg version="1.0" xmlns="http://www.w3.org/2000/svg"
 width="1579.000000pt" height="1579.000000pt" viewBox="0 0 1579.000000 1579.000000"
 preserveAspectRatio="xMidYMid meet">

<g transform="translate(0.000000,1579.000000) scale(0.100000,-0.100000)"
fill="#000000" stroke="none">
<path d="M3236 14520 c-101 -16 -247 -59 -344 -102 -429 -188 -729 -567 -829
-1050 -16 -78 -17 -411 -21 -5328 -2 -3641 0 -5277 8 -5350 64 -639 526 -1147
1150 -1265 137 -26 362 -25 495 3 113 24 203 52 290 90 87 38 9765 5355 9860
5417 200 131 370 323 480 545 210 420 200 920 -26 1340 -114 211 -328 430
-529 542 -161 89 -9734 5035 -9805 5066 -44 19 -132 48 -195 64 -103 27 -133
31 -295 33 -99 2 -206 0 -239 -5z m1364 -3358 c67 -33 114 -91 129 -162 7 -34
11 -311 11 -853 0 -523 4 -815 10 -839 12 -42 34 -58 78 -58 30 0 36 4 173
108 318 243 881 343 1339 238 140 -32 232 -66 370 -137 291 -150 514 -380 663
-681 34 -70 64 -127 67 -127 3 -1 16 18 29 42 83 146 269 357 435 491 285 231
636 392 1026 472 184 37 476 45 645 16 223 -38 390 -107 543 -222 127 -95 211
-201 284 -356 60 -129 80 -218 81 -359 0 -100 -3 -131 -22 -185 -70 -199 -240
-360 -536 -508 -252 -125 -446 -204 -937 -380 -345 -124 -355 -129 -392 -172
-65 -78 -54 -187 37 -365 51 -98 198 -252 295 -309 219 -126 484 -182 756
-157 497 44 881 269 1080 635 26 47 49 86 52 86 2 0 61 -27 130 -60 l127 -60
-7 -41 c-4 -23 -22 -79 -41 -124 -118 -286 -380 -584 -695 -791 -268 -176
-574 -295 -911 -354 -156 -28 -450 -38 -600 -21 -610 70 -1081 384 -1354 904
l-58 109 -51 -98 c-64 -122 -93 -168 -166 -264 -247 -324 -613 -548 -1032
-632 -95 -19 -145 -23 -318 -23 -354 0 -526 46 -1006 273 -229 108 -312 136
-392 130 -94 -7 -141 -38 -318 -211 -104 -100 -178 -164 -205 -177 -89 -40
-180 -18 -227 53 l-27 41 -5 2195 c-5 2116 -6 2198 -24 2246 -38 102 -102 166
-198 197 -18 6 -89 13 -158 17 l-125 6 -3 131 c-2 97 1 134 10 141 12 9 1167
218 1248 226 67 6 135 -5 190 -31z"/>
<path d="M8802 9269 c-304 -37 -522 -250 -577 -565 -20 -116 -20 -344 0 -449
35 -183 104 -347 168 -399 56 -44 143 -48 252 -11 103 35 501 198 579 237 240
120 338 272 306 473 -16 102 -76 273 -126 361 -149 261 -355 382 -602 353z"/>
<path d="M5360 9015 c-276 -56 -457 -233 -554 -543 -49 -156 -57 -241 -63
-617 -8 -521 12 -720 91 -915 105 -257 336 -464 611 -546 109 -32 325 -44 443
-24 180 30 359 170 454 355 81 157 126 321 149 543 15 146 6 512 -16 647 -64
398 -193 689 -394 885 -123 120 -238 183 -389 215 -82 18 -245 18 -332 0z"/>
</g>
</svg>
