<?xml version="1.0" encoding="utf-8"?>
<!-- Generator: Adobe Illustrator 24.0.0, SVG Export Plug-In . SVG Version: 6.00 Build 0)  -->
<svg version="1.1" id="Layer_1" xmlns="http://www.w3.org/2000/svg" xmlns:xlink="http://www.w3.org/1999/xlink" x="0px" y="0px"
	 viewBox="0 0 588.4 76.6" style="enable-background:new 0 0 588.4 76.6;" xml:space="preserve">
<style type="text/css">
	.st0{fill:#403E3E;}
	.st1{fill:#403E3E;stroke:#403E3E;stroke-width:0.1;stroke-miterlimit:10;}
	.st2{fill:url(#SVGID_1_);}
	.st3{fill:url(#SVGID_2_);}
	.st4{fill:url(#SVGID_3_);}
	.st5{fill:url(#SVGID_4_);}
	.st6{fill:url(#SVGID_5_);}
</style>
<g>
	<g>
		<path class="st0" d="M107.9,31.3c2.9,3.1,4.4,7,4.4,11.7c0,4.7-1.4,8.5-4.3,11.6c-2.9,3.1-6.5,4.6-10.9,4.6
			c-2.3,0-4.4-0.4-6.3-1.3c-1.9-0.9-3.5-2.1-4.6-3.8v4.4h-6.2V10.8h6.7v20.3c2.5-3,5.9-4.5,10.4-4.5C101.4,26.6,105,28.2,107.9,31.3
			z M102.7,50.3c1.8-1.9,2.7-4.4,2.7-7.4c0-3-0.9-5.4-2.7-7.3s-4.1-2.9-6.8-2.9c-2.6,0-4.8,0.9-6.6,2.6c-1.8,1.8-2.8,4.3-2.8,7.6
			c0,3.3,0.9,5.9,2.8,7.6s4.1,2.6,6.6,2.6C98.6,53.1,100.9,52.2,102.7,50.3z"/>
	</g>
	<g>
		<path class="st0" d="M148.1,45.1h-23.3c0.4,2.6,1.5,4.6,3.4,6s4.1,2.2,6.8,2.2c3.3,0,6.3-1.2,9.1-3.7l3.2,4.6
			c-3.6,3.3-7.7,5-12.5,5c-4.8,0-8.8-1.6-12-4.7c-3.2-3.1-4.8-7-4.8-11.6c0-4.6,1.6-8.4,4.7-11.6c3.1-3.2,6.9-4.7,11.5-4.7
			c4.2,0,7.6,1.4,10.3,4.1s4.1,6.1,4.1,10.2C148.6,42.2,148.4,43.6,148.1,45.1z M128.1,34.3c-1.6,1.4-2.7,3.2-3.2,5.6h17
			c0-2.3-0.8-4.2-2.4-5.6c-1.5-1.4-3.4-2.1-5.7-2.1C131.7,32.3,129.8,33,128.1,34.3z"/>
	</g>
	<g>
		<path class="st0" d="M162.9,58.5h-6.7V10.8h6.7V58.5z"/>
	</g>
	<g>
		<path class="st0" d="M179.1,12.5c0.9,0.9,1.3,1.9,1.3,3.1c0,1.2-0.4,2.3-1.3,3.1c-0.9,0.8-1.9,1.3-3.2,1.3c-1.3,0-2.4-0.4-3.2-1.3
			c-0.9-0.8-1.3-1.9-1.3-3.1c0-1.2,0.4-2.3,1.3-3.1c0.9-0.9,2-1.3,3.2-1.3C177.2,11.2,178.2,11.7,179.1,12.5z M179.2,58.5h-6.7V27.3
			h6.7V58.5z"/>
	</g>
	<g>
		<path class="st0" d="M217.8,27.3l-15.1,31.9h-2.3l-15.1-31.9h7.1l9.1,20.7l9.2-20.7H217.8z"/>
	</g>
	<g>
		<path class="st0" d="M250.6,45.1h-23.3c0.4,2.6,1.5,4.6,3.4,6s4.1,2.2,6.8,2.2c3.3,0,6.3-1.2,9.1-3.7l3.2,4.6
			c-3.6,3.3-7.7,5-12.5,5c-4.8,0-8.8-1.6-12-4.7c-3.2-3.1-4.8-7-4.8-11.6c0-4.6,1.6-8.4,4.7-11.6c3.1-3.2,6.9-4.7,11.5-4.7
			c4.2,0,7.6,1.4,10.3,4.1s4.1,6.1,4.1,10.2C251.1,42.2,251,43.6,250.6,45.1z M230.7,34.3c-1.6,1.4-2.7,3.2-3.2,5.6h17
			c0-2.3-0.8-4.2-2.4-5.6c-1.5-1.4-3.4-2.1-5.7-2.1C234.3,32.3,232.3,33,230.7,34.3z"/>
	</g>
	<g>
		<path class="st0" d="M290.1,52.9v5.7c-2.1,0.5-4,0.7-5.5,0.7c-3.6,0-6.4-0.9-8.5-2.7s-3.1-4.5-3.1-8.2V33.1H268v-5.8h5.1v-8.2h6.7
			v8.2h9.3v5.8h-9.3v14.7c0,2,0.5,3.4,1.6,4.2c1,0.8,2.6,1.2,4.6,1.2C286.9,53.2,288.3,53.1,290.1,52.9z"/>
	</g>
	<g>
		<path class="st0" d="M322.3,45.1h-23.3c0.4,2.6,1.5,4.6,3.4,6s4.1,2.2,6.8,2.2c3.3,0,6.3-1.2,9.1-3.7l3.2,4.6
			c-3.6,3.3-7.7,5-12.5,5c-4.8,0-8.8-1.6-12-4.7c-3.2-3.1-4.8-7-4.8-11.6c0-4.6,1.6-8.4,4.7-11.6c3.1-3.2,6.9-4.7,11.5-4.7
			c4.2,0,7.6,1.4,10.3,4.1s4.1,6.1,4.1,10.2C322.9,42.2,322.7,43.6,322.3,45.1z M302.4,34.3c-1.6,1.4-2.7,3.2-3.2,5.6h17
			c0-2.3-0.8-4.2-2.4-5.6c-1.5-1.4-3.4-2.1-5.7-2.1C306,32.3,304,33,302.4,34.3z"/>
	</g>
	<g>
		<path class="st0" d="M350.8,28.6c2.3,1.3,4.1,3.1,5.4,5.3l-4.7,3.7c-2.2-3.2-5-4.8-8.4-4.8c-2.8,0-5.2,1-7,2.9
			c-1.8,2-2.8,4.3-2.8,7.2c0,2.9,0.9,5.4,2.8,7.3s4.2,2.9,7,2.9c3.3,0,6.1-1.6,8.4-4.7l4.7,3.6c-3,4.8-7.4,7.2-13.2,7.2
			c-4.6,0-8.5-1.6-11.7-4.7c-3.2-3.2-4.8-7-4.8-11.6s1.6-8.4,4.8-11.6s7.1-4.7,11.7-4.7C345.9,26.6,348.5,27.3,350.8,28.6z"/>
	</g>
	<g>
		<path class="st0" d="M384.7,30c2.1,2.3,3.1,5.3,3.1,9v19.5h-6.7V40c0-2.2-0.6-3.9-1.8-5.2c-1.2-1.3-2.9-2-5-2s-3.8,0.7-5.1,2
			c-1.3,1.4-2,3.1-2,5.2v18.6h-6.7V10.8h6.7v19.5c2.2-2.5,5.3-3.8,9-3.8C379.8,26.6,382.7,27.8,384.7,30z"/>
	</g>
	<g>
		<path class="st0" d="M419.3,30c2.1,2.3,3.1,5.3,3.1,9v19.5h-6.7V39.9c0-2.2-0.6-3.9-1.9-5.2c-1.2-1.3-2.9-2-4.9-2
			c-2.1,0-3.8,0.7-5.1,2c-1.3,1.4-2,3.1-2,5.2v18.6h-6.7V27.3h6.2v3.1c2.3-2.5,5.4-3.8,9.3-3.8C414.4,26.6,417.2,27.7,419.3,30z"/>
	</g>
	<g>
		<path class="st0" d="M456.9,31.3c3.2,3.1,4.9,7,4.9,11.6s-1.6,8.4-4.9,11.6c-3.2,3.2-7.2,4.7-11.7,4.7c-4.6,0-8.5-1.6-11.7-4.8
			c-3.2-3.1-4.8-7-4.8-11.6s1.6-8.4,4.8-11.6c3.2-3.1,7.1-4.7,11.7-4.7C449.8,26.6,453.7,28.2,456.9,31.3z M438.3,35.7
			c-1.8,1.9-2.8,4.4-2.8,7.3c0,2.9,0.9,5.3,2.7,7.2c1.8,1.9,4.1,2.9,6.9,2.9c2.8,0,5.1-1,6.9-2.9s2.8-4.3,2.8-7.2
			c0-2.9-0.9-5.4-2.8-7.3s-4.1-2.9-6.9-3C442.5,32.8,440.1,33.7,438.3,35.7z"/>
	</g>
	<g>
		<path class="st0" d="M474.1,58.5h-6.7V10.8h6.7V58.5z"/>
	</g>
	<g>
		<path class="st0" d="M509,31.3c3.2,3.1,4.9,7,4.9,11.6s-1.6,8.4-4.9,11.6c-3.2,3.2-7.2,4.7-11.7,4.7c-4.6,0-8.5-1.6-11.7-4.8
			c-3.2-3.1-4.8-7-4.8-11.6s1.6-8.4,4.8-11.6c3.2-3.1,7.1-4.7,11.7-4.7C501.8,26.6,505.7,28.2,509,31.3z M490.4,35.7
			c-1.8,1.9-2.8,4.4-2.8,7.3c0,2.9,0.9,5.3,2.7,7.2c1.8,1.9,4.1,2.9,6.9,2.9c2.8,0,5.1-1,6.9-2.9s2.8-4.3,2.8-7.2
			c0-2.9-0.9-5.4-2.8-7.3s-4.1-2.9-6.9-3C494.5,32.8,492.2,33.7,490.4,35.7z"/>
	</g>
	<g>
		<path class="st1" d="M518.5,62.7c0-2.5,1.7-4.9,4.5-6.6v-0.2c-1.6-0.9-2.7-2.5-2.7-4.8c0-2.4,1.8-4.4,3.4-5.4v-0.2
			c-2-1.5-4-4.4-4-7.8c0-6.4,5.3-10.4,11.5-10.4c1.7,0,3.2,0.3,4.3,0.7h10.7v3.8h-6.3c1.4,1.3,2.5,3.5,2.5,6c0,6.2-5,10.1-11.2,10.1
			c-1.5,0-3.2-0.3-4.6-1c-1.1,0.9-2,1.8-2,3.4c0,1.9,1.3,3.2,5.4,3.2h6c7.1,0,10.7,2.1,10.7,7c0,5.4-6,10.1-15.5,10.1
			C523.7,70.5,518.5,67.7,518.5,62.7z M541.6,61.1c0-2.7-2.1-3.6-6.2-3.6h-5.3c-1.2,0-2.6-0.1-4-0.4c-2.2,1.5-3.1,3.2-3.1,4.9
			c0,3.1,3.3,5.1,8.9,5.1C537.7,67.1,541.6,64.2,541.6,61.1z M537.6,37.5c0-4.2-2.9-6.8-6.5-6.8c-3.6,0-6.5,2.5-6.5,6.8
			c0,4.2,3,6.9,6.5,6.9S537.6,41.8,537.6,37.5z"/>
		<path class="st1" d="M531.2,71.1c-8.2,0-13.3-3.2-13.3-8.5c0-2.5,1.5-4.9,4.1-6.7c-1.6-1.2-2.4-2.9-2.4-4.9c0-2.7,2-4.7,3.1-5.6
			c-1.9-1.6-3.7-4.4-3.7-7.9c0-6.4,5.1-11,12.1-11c1.5,0,3.1,0.3,4.4,0.7h11.2v5.1h-5.5c1.1,1.5,1.7,3.4,1.7,5.4
			c0,6.3-4.9,10.8-11.9,10.8c-1.5,0-3.1-0.3-4.5-0.9c-0.9,0.7-1.4,1.5-1.4,2.7c0,0.8,0,2.5,4.7,2.5h6c7.6,0,11.3,2.5,11.3,7.6
			C547.3,66.6,540.5,71.1,531.2,71.1z M531.1,27.8c-5.4,0-10.8,3.3-10.8,9.7c0,3.4,1.9,6,3.7,7.3l0.3,0.2V46l-0.3,0.2
			c-0.7,0.5-3.1,2.3-3.1,4.9c0,2.3,1.3,3.6,2.4,4.2l0.3,0.2v1l-0.3,0.2c-2.7,1.7-4.2,3.8-4.2,6c0,4.4,4.6,7.2,12,7.2
			c8.5,0,14.8-4.1,14.8-9.4c0-2.7-1-6.3-10-6.3h-6c-4,0-6-1.3-6-3.8c0-1.9,1.1-3.1,2.2-4l0.3-0.2l0.4,0.2c1.3,0.6,2.9,0.9,4.3,0.9
			c6.2,0,10.6-3.9,10.6-9.5c0-2.1-0.9-4.2-2.3-5.5l-1.2-1.1h7.3v-2.5l-10.3,0C534.5,28.2,533.1,27.8,531.1,27.8z M531.9,67.7
			c-5.9,0-9.5-2.2-9.5-5.8c0-1.4,0.6-3.5,3.4-5.4l0.2-0.2l0.3,0.1c1.6,0.4,3.1,0.4,3.8,0.4h5.3c3.2,0,6.8,0.5,6.8,4.3
			C542.2,64.4,538.4,67.7,531.9,67.7z M526.3,57.8c-1.7,1.2-2.6,2.7-2.6,4.2c0,2.8,3.2,4.5,8.2,4.5c5.6,0,9-2.8,9-5.3
			c0-1.5-0.7-3-5.5-3h-5.3C529.3,58.2,527.9,58.1,526.3,57.8z M531.1,45.1c-4.1,0-7.2-3.2-7.2-7.6c0-4.4,2.9-7.5,7.2-7.5
			s7.2,3.1,7.2,7.5C538.3,41.9,535.3,45.1,531.1,45.1z M531.1,31.4c-3.5,0-5.9,2.5-5.9,6.2c0,3.6,2.5,6.3,5.9,6.3s5.9-2.6,5.9-6.3
			C537,33.9,534.6,31.4,531.1,31.4z"/>
	</g>
	<g>
		<path class="st0" d="M582.1,27.3l-15.2,34.8c-1.3,3-2.9,5.1-4.7,6.5c-1.8,1.4-4.1,2.1-6.7,2.1c-1.7,0-3.5-0.2-5.2-0.6v-5.7
			c2,0.2,3.2,0.3,3.7,0.3c1.6,0,2.9-0.3,4-1c1.1-0.7,2-1.9,2.8-3.6l1.3-2.9l-12.5-29.8h7.2l9,22.8l9.2-22.8H582.1z"/>
	</g>
	<g>
		<rect x="155.9" y="64.3" class="st0" width="95" height="6"/>
	</g>
</g>
<g>
	<linearGradient id="SVGID_1_" gradientUnits="userSpaceOnUse" x1="19.8814" y1="52.6571" x2="49.789" y2="52.6571">
		<stop  offset="0" style="stop-color:#EA3D54"/>
		<stop  offset="1" style="stop-color:#C12D85"/>
	</linearGradient>
	<path class="st2" d="M41.8,46.8c-0.2-0.3-0.5-0.4-0.8-0.4l-12.5,0c-0.3,0-0.6,0.2-0.8,0.4l-7.6,10.5c-0.5,0.7,0,1.6,0.8,1.6l27.9,0
		c0.8,0,1.3-0.9,0.8-1.6L41.8,46.8z"/>
	<linearGradient id="SVGID_2_" gradientUnits="userSpaceOnUse" x1="36.1285" y1="18.8145" x2="60.7069" y2="18.8145">
		<stop  offset="0" style="stop-color:#EA3D54"/>
		<stop  offset="1" style="stop-color:#C12D85"/>
	</linearGradient>
	<path class="st3" d="M36.5,22.4l10.1,7.4c0.3,0.2,0.6,0.2,0.9,0.1L60,26c0.8-0.3,1-1.3,0.3-1.8L37.7,7.8c-0.7-0.5-1.6,0-1.6,0.8v13
		C36.1,21.9,36.3,22.3,36.5,22.4z"/>
	<linearGradient id="SVGID_3_" gradientUnits="userSpaceOnUse" x1="8.9635" y1="18.8145" x2="33.5419" y2="18.8145">
		<stop  offset="0" style="stop-color:#EA3D54"/>
		<stop  offset="1" style="stop-color:#C12D85"/>
	</linearGradient>
	<path class="st4" d="M9.7,26l12.4,3.9c0.3,0.1,0.6,0,0.9-0.1l10.1-7.4c0.3-0.2,0.4-0.5,0.4-0.8v-13c0-0.8-0.9-1.3-1.6-0.8L9.4,24.2
		C8.7,24.7,8.9,25.8,9.7,26z"/>
	<linearGradient id="SVGID_4_" gradientUnits="userSpaceOnUse" x1="7.4928" y1="42.6216" x2="25.7528" y2="42.6216">
		<stop  offset="0" style="stop-color:#EA3D54"/>
		<stop  offset="1" style="stop-color:#C12D85"/>
	</linearGradient>
	<path class="st5" d="M25.7,45.1l-3.9-11.9c-0.1-0.3-0.3-0.5-0.6-0.6L8.8,28.4c-0.8-0.3-1.5,0.5-1.3,1.3l8.6,26.5
		c0.3,0.8,1.3,0.9,1.8,0.3L25.6,46C25.7,45.7,25.8,45.4,25.7,45.1z"/>
	<linearGradient id="SVGID_5_" gradientUnits="userSpaceOnUse" x1="43.9781" y1="42.6216" x2="62.2381" y2="42.6216">
		<stop  offset="0" style="stop-color:#EA3D54"/>
		<stop  offset="1" style="stop-color:#C12D85"/>
	</linearGradient>
	<path class="st6" d="M60.9,28.4l-12.4,4.1c-0.3,0.1-0.5,0.3-0.6,0.6L44,45.1c-0.1,0.3,0,0.6,0.1,0.9l7.6,10.5
		c0.5,0.7,1.5,0.5,1.8-0.3l8.6-26.5C62.4,28.9,61.7,28.1,60.9,28.4z"/>
</g>
</svg>
