<?xml version="1.0" standalone="no"?>
<!DOCTYPE svg PUBLIC "-//W3C//DTD SVG 20010904//EN"
 "http://www.w3.org/TR/2001/REC-SVG-20010904/DTD/svg10.dtd">
<svg version="1.0" xmlns="http://www.w3.org/2000/svg"
 width="512.000000pt" height="512.000000pt" viewBox="0 0 512.000000 512.000000"
 preserveAspectRatio="xMidYMid meet">

<g transform="translate(0.000000,512.000000) scale(0.100000,-0.100000)"
fill="#000000" stroke="none">
<path d="M2308 5102 c-9 -4 -50 -31 -90 -60 -99 -72 -549 -400 -906 -662 -349
-255 -652 -477 -898 -655 -98 -71 -193 -144 -211 -161 -41 -40 -43 -74 -5
-113 27 -30 77 -46 927 -313 88 -27 177 -56 198 -64 20 -8 57 -14 80 -14 47 0
14 -22 447 292 129 94 299 215 377 269 78 55 155 113 172 128 l31 29 0 640 c0
594 -1 641 -17 661 -19 23 -76 36 -105 23z"/>
<path d="M2704 5079 c-18 -20 -19 -48 -22 -644 -1 -398 1 -632 8 -649 6 -16
48 -54 107 -97 54 -39 224 -161 378 -273 519 -374 492 -356 531 -356 20 0 102
21 182 46 81 25 230 72 332 104 509 158 677 214 698 233 16 15 22 32 22 63 0
50 19 32 -240 221 -203 147 -533 387 -740 539 -80 58 -273 199 -429 312 -156
114 -381 278 -500 365 -205 149 -218 157 -262 157 -34 0 -51 -5 -65 -21z"/>
<path d="M68 3170 c-22 -17 -28 -30 -28 -60 0 -22 4 -49 9 -62 6 -13 47 -138
92 -278 45 -140 101 -313 124 -385 24 -71 86 -265 139 -430 54 -165 102 -313
107 -330 6 -16 39 -122 75 -235 256 -804 266 -830 330 -830 43 0 60 16 146
136 46 64 107 148 135 187 29 40 77 106 107 147 30 41 96 131 146 200 257 353
260 357 260 390 0 15 -17 81 -39 146 -75 230 -231 710 -276 852 -26 80 -56
153 -68 166 -17 18 -157 69 -582 210 -308 102 -580 189 -605 192 -37 5 -50 2
-72 -16z"/>
<path d="M4945 3183 c-11 -3 -220 -72 -465 -155 -245 -82 -493 -166 -553 -185
-59 -19 -116 -42 -127 -51 -22 -18 -42 -74 -145 -397 -37 -115 -95 -295 -130
-400 -100 -305 -115 -355 -115 -380 0 -12 24 -56 53 -96 190 -264 329 -456
438 -604 68 -93 151 -207 182 -253 32 -45 67 -87 77 -92 31 -16 67 -11 95 13
25 22 39 63 340 997 89 277 285 880 315 970 16 47 63 192 105 322 76 236 76
238 60 272 -20 42 -63 55 -130 39z"/>
<path d="M1918 1508 c-9 -7 -53 -65 -99 -128 -45 -63 -99 -137 -119 -165 -38
-52 -179 -247 -340 -470 -51 -71 -113 -156 -137 -188 -71 -97 -54 -166 46
-181 23 -4 624 -3 1334 0 l1291 7 23 25 c29 32 29 70 0 113 -36 52 -357 489
-612 832 l-120 162 -625 3 c-491 2 -629 -1 -642 -10z"/>
</g>
</svg>
